<svg width="91" height="98" viewBox="0 0 91 98" fill="none" xmlns="http://www.w3.org/2000/svg">
<g clip-path="url(#clip0)">
<path d="M22.75 16.3333H68.25V24.4999H22.75V16.3333Z" fill="white"/>
<path d="M22.75 73.5H68.25V81.6667H22.75V73.5Z" fill="white"/>
<path d="M28.1294 85.75C29.6038 89.3907 32.0327 92.489 35.1182 94.6649C38.2037 96.8408 41.8118 97.9998 45.4999 97.9998C49.1881 97.9998 52.7962 96.8408 55.8817 94.6649C58.9672 92.489 61.3961 89.3907 62.8705 85.75H28.1294Z" fill="white"/>
<path d="M45.4999 0C41.8126 0.00436133 38.2063 1.16516 35.1216 3.34058C32.0368 5.51601 29.6071 8.61188 28.1294 12.25H62.8705C61.3928 8.61188 58.9631 5.51601 55.8783 3.34058C52.7936 1.16516 49.1873 0.00436133 45.4999 0V0Z" fill="white"/>
<path d="M64.4583 20.4168C64.4575 19.5159 64.18 18.6407 63.6692 17.9274C63.1584 17.214 62.4428 16.7026 61.634 16.4728L26.5417 54.2645V65.6836L64.4583 24.8502V20.4168Z" fill="white"/>
<path d="M64.4583 36.3999L26.5417 77.2333V77.5834C26.5417 78.6664 26.9411 79.705 27.6522 80.4708C28.3633 81.2365 29.3277 81.6667 30.3333 81.6667H33.0283L64.4583 47.8189V36.3999Z" fill="white"/>
<path d="M30.3333 16.3333C29.3277 16.3333 28.3633 16.7635 27.6522 17.5292C26.9411 18.295 26.5417 19.3336 26.5417 20.4166V42.7147L51.0386 16.3333H30.3333Z" fill="white"/>
<path d="M43.753 81.6667H60.6667C61.6723 81.6667 62.6367 81.2365 63.3478 80.4707C64.0589 79.7049 64.4584 78.6663 64.4584 77.5834V59.3687L43.753 81.6667Z" fill="white"/>
</g>
<defs>
<clipPath id="clip0">
<rect width="91" height="98" fill="white"/>
</clipPath>
</defs>
</svg>
