<svg width="97" height="98" viewBox="0 0 97 98" fill="none" xmlns="http://www.w3.org/2000/svg">
<path d="M93.5622 39.033C93.8715 45.274 93.406 51.53 92.1768 57.6552C89.9247 51.2025 85.1542 41.623 75.688 35.5218C66.0271 29.2957 53.776 28.207 39.4075 32.2491C35.4007 32.9347 31.3052 32.8854 27.3162 32.1025C27.2318 32.0958 27.1467 32.0958 27.0616 32.1025C26.941 32.0883 26.8189 32.0883 26.6982 32.1025C26.5828 32.125 26.4703 32.1601 26.3623 32.2057C26.2757 32.2259 26.1906 32.2521 26.1077 32.2842C21.6228 34.7464 11.9124 42.0933 11.8324 59.5155C7.31506 53.003 0.226657 38.8154 5.42343 18.7987C6.44029 20.0548 7.56372 21.2198 8.7804 22.2792C20.4447 32.2439 36.9408 25.0413 47.7547 20.3158C73.0777 11.2245 86.5211 25.3246 93.3387 38.7511C93.4023 38.8535 93.4771 38.9477 93.5622 39.033ZM46.4796 17.0483C38.304 20.6186 26.7589 25.6499 17.3371 22.9634C16.1752 17.9097 17.4185 10.974 21.0826 2.26929C22.8839 5.31243 26.0692 9.45843 30.5074 10.5261C33.9472 11.3524 37.4359 10.2338 40.8758 7.20112C51.7748 -2.4173 67.1291 -2.39786 79.0657 7.24449C86.0874 13.176 90.8261 21.4097 92.4535 30.5099C84.8301 19.5823 70.677 8.36305 46.4796 17.0483Z" fill="white"/>
<path d="M23.5715 92.5592C28.9533 91.4743 33.4759 87.8128 35.6968 82.7434C35.9529 82.2058 36.1941 81.66 36.4332 81.1142C36.9483 79.7885 37.6195 78.5294 38.4321 77.3652C39.3246 76.1592 40.7241 75.4421 42.2154 75.4279C44.8197 75.5117 47.2723 76.6886 48.9811 78.6767C49.9565 79.6898 50.7395 80.8764 51.2901 82.1767C51.131 83.1008 51.7223 83.9876 52.6296 84.1857C53.5377 84.3846 54.4391 83.8246 54.673 82.9169C55.6136 79.9238 57.6954 77.4325 60.4581 75.9932C62.013 75.1139 63.8795 74.9973 65.5305 75.6747C67.6087 76.5801 68.8512 79.2524 69.9547 81.6114L70.4616 82.6836C71.7612 85.7768 73.8933 88.4394 76.6161 90.3685C78.1887 91.3457 79.9123 92.0471 81.7159 92.4441L81.915 92.4912L82.362 92.5959C76.7811 96.5796 64.9185 102.62 54.1964 92.1831C53.5259 91.5296 52.4631 91.5296 51.7926 92.1831C41.0098 102.671 29.1213 96.5527 23.5715 92.5592Z" fill="white"/>
</svg>
