<svg width="37" height="37" viewBox="0 0 37 37" fill="none" xmlns="http://www.w3.org/2000/svg">
<rect width="37" height="37" fill="#170F0C" fill-opacity="0.57"/>
<path d="M18.5 27.8945C13.3198 27.8945 9.10547 23.6802 9.10547 18.5C9.62145 6.03685 27.3804 6.04047 27.8945 18.5001C27.8945 23.6802 23.6802 27.8945 18.5 27.8945ZM18.5 11.9961C14.9137 11.9961 11.9961 14.9137 11.9961 18.5C12.3534 27.1283 24.6479 27.1258 25.0039 18.4999C25.0039 14.9137 22.0863 11.9961 18.5 11.9961ZM35.5547 37H1.44531C0.647066 37 0 36.3529 0 35.5547V1.44531C0 0.647066 0.647066 0 1.44531 0H35.5547C36.3529 0 37 0.647066 37 1.44531V35.5547C37 36.3529 36.3529 37 35.5547 37ZM2.89062 34.1094H34.1094V2.89062H2.89062V34.1094ZM29.7734 5.78125C28.9752 5.78125 28.3281 6.42832 28.3281 7.22656C28.3281 8.02481 28.9752 8.67188 29.7734 8.67188C30.5717 8.67188 31.2188 8.02481 31.2188 7.22656C31.2188 6.42832 30.5717 5.78125 29.7734 5.78125Z" fill="#F3F3F3"/>
<rect width="37" height="37" stroke="black"/>
</svg>
