<svg width="48" height="19" viewBox="0 0 48 19" fill="none" xmlns="http://www.w3.org/2000/svg">
<path d="M0 13.7019C4.38311 12.8437 8.06645 9.94714 9.87526 5.93681C10.0838 5.51153 10.2803 5.07974 10.475 4.64795C10.8945 3.59923 11.4412 2.60316 12.103 1.6822C12.8299 0.728121 13.9697 0.160879 15.1842 0.149641C17.3052 0.215888 19.3027 1.1469 20.6944 2.71968C21.4888 3.52115 22.1265 4.45985 22.575 5.48846C22.4454 6.21955 22.927 6.92106 23.6659 7.07781C24.4055 7.23514 25.1396 6.79211 25.3301 6.07404C26.0962 3.70629 27.7917 1.73543 30.0417 0.59681C31.308 -0.0987865 32.8281 -0.191059 34.1728 0.344834C35.8653 1.06113 36.8773 3.17513 37.776 5.04129L38.1889 5.88949C39.2473 8.3365 40.9838 10.4428 43.2013 11.9689C44.4821 12.7419 45.8859 13.2968 47.3547 13.6109L47.5169 13.6481L47.8809 13.7309C43.3357 16.8824 33.6744 21.6611 24.9419 13.4044C24.3958 12.8875 23.5303 12.8875 22.9842 13.4044C14.2023 21.7013 4.51993 16.8611 0 13.7019Z" fill="white"/>
</svg>
