<svg width="82" height="95" viewBox="0 0 82 95" fill="none" xmlns="http://www.w3.org/2000/svg">
<path d="M29.7754 40.4428C26.3623 41.9548 16.584 46.8727 9.72119 56.1841C1.46137 67.3903 0.72149 80.4855 0.694139 81.0375L-7.62935e-06 94.9995L40.9996 39.3751L67.7361 75.6484L73.6368 83.6539L82 95L81.3054 81.0375C81.278 80.4855 80.5379 67.3903 72.2781 56.1843C65.4155 46.8729 55.6372 41.9548 52.2243 40.4428L46.2186 32.2946L55.5058 19.694C56.3306 20.8702 57.367 21.9093 58.5869 22.7665C60.7707 24.3007 63.3464 25.1118 66.0356 25.1118C70.1714 25.1118 74.087 23.1493 76.51 19.8621C80.6596 14.2326 79.3713 6.3746 73.6385 2.34551C71.4549 0.811065 68.8792 6.52494e-06 66.1898 6.29855e-06C62.0542 5.95043e-06 58.1386 1.96243 55.7159 5.24946L41.0001 25.2146L26.2844 5.24945C23.8616 1.96266 19.9465 0.000238917 15.8107 2.05782e-06L15.81 2.05776e-06C13.121 1.83141e-06 10.5453 0.81106 8.3617 2.34575C5.57907 4.30109 3.74979 7.20432 3.21127 10.5199C2.67468 13.8226 3.48428 17.1406 5.49049 19.8621C7.91346 23.1491 11.829 25.1118 15.9646 25.1118C18.6538 25.1118 21.2295 24.3007 23.4136 22.7662C24.6332 21.9093 25.6694 20.8702 26.4942 19.694L35.7814 32.2946L29.7754 40.4428ZM66.1895 8.27133C67.0921 8.27133 67.9569 8.54358 68.69 9.05877C70.6315 10.4235 71.0553 13.1023 69.6341 15.0304C68.7989 16.1638 67.4534 16.8404 66.0354 16.8404C65.1328 16.8404 64.2678 16.5682 63.5347 16.0528C62.5997 15.3958 61.9847 14.4169 61.8027 13.2965C61.6185 12.1626 61.8986 11.0207 62.5913 10.0813C63.4265 8.94769 64.7715 8.27133 66.1895 8.27133ZM20.1968 13.2963C20.0148 14.4167 19.3998 15.3955 18.4651 16.0523C17.7317 16.5679 16.8667 16.8402 15.9641 16.8402C14.5463 16.8402 13.2009 16.1636 12.3654 15.0299C11.6732 14.0906 11.3929 12.9491 11.5771 11.8155C11.7593 10.6948 12.3746 9.71574 13.3096 9.05876C14.0427 8.54334 14.9074 8.27109 15.8095 8.27109L15.8097 8.27109C17.2278 8.27109 18.573 8.94769 19.4083 10.0809C20.101 11.0207 20.381 12.1626 20.1968 13.2963Z" fill="white"/>
</svg>
