<svg width="38" height="37" viewBox="0 0 38 37" fill="none" xmlns="http://www.w3.org/2000/svg">
<mask id="path-1-inside-1" fill="white">
<rect width="38" height="37" rx="1"/>
</mask>
<rect width="38" height="37" rx="1" fill="#170F0C" fill-opacity="0.57"/>
<path d="M14.3253 30.1995C11.7273 30.1996 8.62306 29.6242 5.31833 27.7943C5.21947 27.7396 5.12988 27.6705 5.05255 27.5895C4.72717 27.248 4.43824 26.6595 4.60315 26.0321C4.68628 25.7159 4.95992 25.142 5.85849 24.8506C6.00359 24.8035 6.157 24.7861 6.30937 24.7994C6.33312 24.8013 8.16654 24.946 9.97347 24.4873C9.86927 24.4137 9.76492 24.3368 9.66153 24.2566C7.87093 22.8683 7.59803 21.4791 7.70713 20.5219C6.93726 19.645 5.53111 17.7811 5.80045 16.1236C5.85908 15.763 6.01175 15.3125 6.37913 14.8975C6.25927 14.6053 6.12694 14.2499 6.00841 13.858C5.5585 12.3699 5.52146 11.0977 5.8982 10.0767C6.24235 9.14423 6.93548 8.43834 7.9027 8.03532C8.35209 7.84822 8.87429 7.96811 9.19024 8.33139C9.22498 8.37106 12.5207 12.0827 16.9488 12.8116C17.1109 9.46567 20.0082 6.79517 23.5099 6.79517C23.5306 6.79517 23.5511 6.79524 23.572 6.79545C24.8809 6.80731 26.7002 6.9642 28.0426 8.09219C28.6101 7.99102 29.5342 7.78542 30.219 7.43212C30.7212 7.17312 31.2979 7.15035 31.8014 7.36953C32.5716 7.70477 32.9139 8.47505 32.6335 9.24259C32.6064 9.31673 32.5735 9.39767 32.5364 9.4833C32.5549 9.49212 32.5733 9.5013 32.5915 9.51069C33.0187 9.73132 33.3085 10.0788 33.4074 10.4892C33.4646 10.7266 33.5036 11.202 33.1227 11.7189C33.099 11.7511 33.0735 11.7821 33.0463 11.8116L30.8273 14.2159C30.828 14.9886 30.7436 16.6105 30.15 18.5857C29.3993 21.0836 27.6549 24.6658 23.6081 27.546C23.5166 27.6103 21.4639 29.0338 18.1882 29.7708C17.0993 30.0158 15.7928 30.1995 14.3253 30.1995ZM8.54788 26.92C11.5346 28.1043 14.5992 28.3533 17.6869 27.6585C20.5302 27.0188 22.2826 25.8039 22.2999 25.7917C29.0614 20.9794 28.598 13.9649 28.5926 13.8947C28.5696 13.5996 28.6715 13.3083 28.8746 13.0882L30.2166 11.6341C30.0719 11.5699 29.9402 11.4749 29.8325 11.3521C29.5281 11.0053 29.4794 10.51 29.7105 10.1132C29.7474 10.0499 29.7885 9.97832 29.8321 9.90114C28.7868 10.2073 27.8463 10.3182 27.7895 10.3247C27.4219 10.3668 27.0572 10.2284 26.8159 9.95556C26.2301 9.29339 25.1928 8.97817 23.5515 8.96335C23.5377 8.96321 23.5239 8.96313 23.5101 8.96313C21.1513 8.96313 19.2079 10.7828 19.1689 13.0376C19.1643 13.3026 19.1856 13.5686 19.2322 13.8281C19.2898 14.1491 19.196 14.4784 18.9767 14.7247C18.7573 14.971 18.4342 15.1084 18.1012 15.0981C13.3875 14.9566 9.67511 11.8899 8.18903 10.4546C8.10754 10.5585 8.04304 10.6763 7.99376 10.8099C7.5466 12.0217 8.39692 14.0883 8.73009 14.7167C9.009 15.2428 8.80275 15.8895 8.26681 16.1693C8.02709 16.2944 8.01061 16.3956 7.99978 16.4626C7.88585 17.1633 8.92157 18.6488 9.71304 19.4518C9.99581 19.7387 10.0945 20.1532 9.97043 20.5319C9.43917 22.1528 12.8427 23.6026 12.8774 23.6166C13.2583 23.7696 13.5222 24.1154 13.5618 24.5149C13.6014 24.9143 13.412 25.3028 13.0682 25.5239C11.6632 26.4273 9.93243 26.7868 8.54788 26.92ZM31.6689 11.4439L31.6688 11.4439C31.6689 11.4439 31.6689 11.4439 31.6689 11.4439Z" fill="white"/>
<path d="M36.8867 37H1.11328C0.498453 37 0 36.5147 0 35.916V1.08398C0 0.485336 0.498453 0 1.11328 0H36.8867C37.5015 0 38 0.485336 38 1.08398V35.916C38 36.5147 37.5015 37 36.8867 37ZM2.22656 34.832H35.7734V2.16797H2.22656V34.832Z" fill="white"/>
<rect width="38" height="37" rx="1" stroke="white" stroke-width="6" mask="url(#path-1-inside-1)"/>
</svg>
