<svg width="38" height="38" viewBox="0 0 38 38" fill="none" xmlns="http://www.w3.org/2000/svg">
<path d="M14.1367 23.8339C16.9834 26.6805 20.4605 28.8915 24.4946 30.5347C27.2957 31.6757 29.6612 30.4842 30.6286 27.6076C30.8021 27.0912 30.8141 26.5856 30.6274 26.0782C30.1763 24.8515 25.9003 21.7451 24.621 21.6753C23.6398 21.622 23.1085 22.2886 22.6592 22.9506C21.8102 24.2002 20.7338 24.2073 19.5331 23.6732C18.3251 23.1355 17.268 22.4459 16.3964 21.5743C15.5244 20.7023 14.8349 19.6452 14.2974 18.4372C13.763 17.2365 13.7701 16.1604 15.02 15.3111C15.6817 14.8621 16.3486 14.3308 16.2951 13.3496C16.2256 12.0703 13.1191 7.79437 11.8924 7.34325C11.3847 7.15655 10.8791 7.16849 10.3628 7.34202C7.48613 8.30947 6.29496 10.675 7.43594 13.476C9.07915 17.5101 11.2901 20.9873 14.1367 23.8339Z" fill="white"/>
<path d="M19.6788 8.77798C20.3056 8.67851 20.9496 8.65617 21.592 8.71218C23.5722 8.88357 25.4563 9.77205 26.8975 11.2133C28.2956 12.6113 29.1556 14.4192 29.319 16.3039C29.3747 16.9476 29.3478 17.5933 29.2385 18.2223C29.1608 18.6697 29.4607 19.0958 29.9082 19.1735C29.9559 19.1818 30.0034 19.1858 30.0499 19.1858C30.4425 19.1858 30.7899 18.9039 30.8594 18.5039C30.9931 17.735 31.0262 16.9469 30.9582 16.1616C30.7615 13.8919 29.7325 11.7213 28.0611 10.05C26.3463 8.33512 24.0995 7.278 21.7343 7.07263C20.9585 7.0056 20.1802 7.03254 19.4211 7.15282C18.9725 7.22413 18.6664 7.64557 18.7374 8.09425C18.8084 8.54293 19.2295 8.84899 19.6788 8.77798Z" fill="white"/>
<path d="M27.2801 18.4629C27.3153 18.4672 27.3502 18.4693 27.385 18.4693C27.793 18.4693 28.1471 18.1657 28.2001 17.7504C28.2564 17.3054 28.2653 16.8506 28.2261 16.3988C28.085 14.7709 27.3376 13.2048 26.122 11.9892C24.8628 10.73 23.2205 9.9542 21.4974 9.80484C21.0126 9.76291 20.5257 9.7724 20.0501 9.833C19.5993 9.89054 19.2807 10.3028 19.3382 10.7533C19.3957 11.2041 19.8092 11.5224 20.2585 11.4652C20.6181 11.4193 20.9872 11.4122 21.3554 11.4441C22.6932 11.5601 23.9728 12.1667 24.9583 13.1525C25.9007 14.0948 26.4791 15.2983 26.5869 16.5408C26.6159 16.8766 26.6095 17.2136 26.5679 17.5429C26.5103 17.9937 26.8296 18.4053 27.2801 18.4629Z" fill="white"/>
<path d="M24.6235 17.9744C24.6425 17.976 24.6612 17.9766 24.6801 17.9766C25.1089 17.9766 25.4707 17.6439 25.5001 17.2096C25.5129 17.0214 25.5111 16.8282 25.4942 16.6354C25.3115 14.5273 23.4519 12.7268 21.2606 12.537C21.0818 12.5214 20.9028 12.5174 20.7283 12.5245C20.2741 12.5431 19.9212 12.9263 19.9399 13.3802C19.9589 13.8344 20.3427 14.1867 20.796 14.1683C20.9009 14.164 21.0096 14.1668 21.1185 14.1763C22.49 14.295 23.743 15.4865 23.855 16.7777C23.8645 16.8861 23.8657 16.9938 23.8587 17.0979C23.8275 17.5511 24.1699 17.9438 24.6235 17.9744Z" fill="white"/>
<path d="M0 0V38H38V0H0ZM35.6495 35.6495H2.35052V2.35052H35.6495V35.6495Z" fill="white"/>
</svg>
