<?xml version="1.0" encoding="UTF-8" standalone="no"?> <svg xmlns="http://www.w3.org/2000/svg" viewBox="0 0 64 56"><defs><style>.cls-1{fill:#35353d;}</style></defs><title>Asset 54</title><g id="Layer_2" data-name="Layer 2"><g id="Layer_1-2" data-name="Layer 1"><path class="cls-1" d="M56,13.33H53.33V8a8,8,0,0,0-8-8H18.67a8,8,0,0,0-8,8v5.33H8a8,8,0,0,0-8,8V48a8,8,0,0,0,8,8H56a8,8,0,0,0,8-8V21.33A8,8,0,0,0,56,13.33ZM16,8a2.68,2.68,0,0,1,2.67-2.67H45.33A2.68,2.68,0,0,1,48,8v5.33H16ZM8,18.67H56a2.67,2.67,0,0,1,2.67,2.66v5.34H5.33V21.33A2.67,2.67,0,0,1,8,18.67ZM29.33,32h5.34v2.67H29.33ZM56,50.67H8A2.68,2.68,0,0,1,5.33,48V32H24v2.67A5.33,5.33,0,0,0,29.33,40h5.34A5.33,5.33,0,0,0,40,34.67V32H58.67V48A2.68,2.68,0,0,1,56,50.67Z"/></g></g></svg>