<?xml version="1.0" encoding="UTF-8" standalone="no"?> <svg xmlns="http://www.w3.org/2000/svg" viewBox="0 0 32 32"><defs><style>.cls-1{fill:#1a1a1a;}</style></defs><title>Audio, earphone, headphones, music</title><g id="_04" data-name="04"><path class="cls-1" d="M8,30H7.5a5.5,5.5,0,0,1,0-11H8a1,1,0,0,1,1,1v9A1,1,0,0,1,8,30ZM7,21A3.5,3.5,0,0,0,7,28Z"/><path class="cls-1" d="M24.5,30H24a1,1,0,0,1-1-1V20a1,1,0,0,1,1-1h.5a5.5,5.5,0,0,1,0,11Zm.5-9V28A3.5,3.5,0,0,0,25,21Z"/><path class="cls-1" d="M24,30H21a1,1,0,0,1-1-1V20a1,1,0,0,1,1-1h3a1,1,0,0,1,1,1v9A1,1,0,0,1,24,30Zm-2-2h1V21H22Z"/><path class="cls-1" d="M11,30H8a1,1,0,0,1-1-1V20a1,1,0,0,1,1-1h3a1,1,0,0,1,1,1v9A1,1,0,0,1,11,30ZM9,28h1V21H9Z"/><path class="cls-1" d="M25,21a1,1,0,0,1-1-1V12A8,8,0,0,0,8,12v7a1,1,0,0,1-2,0V12a10,10,0,0,1,20,0v8A1,1,0,0,1,25,21Z"/></g></svg>