<?xml version="1.0" encoding="utf-8"?>
<!-- Generator: Adobe Illustrator 21.0.2, SVG Export Plug-In . SVG Version: 6.00 Build 0)  -->
<svg version="1.1" id="Layer_1" xmlns="http://www.w3.org/2000/svg" xmlns:xlink="http://www.w3.org/1999/xlink" x="0px" y="0px"
	 viewBox="0 0 100 100" style="enable-background:new 0 0 100 100;" xml:space="preserve">
<path d="M24.9,74c-1.6,0-3.1,0.6-4.2,1.8c-1.1,1.1-1.8,2.6-1.8,4.2s0.6,3.1,1.8,4.2c1.2,1.2,2.7,1.8,4.2,1.8c1.5,0,3.1-0.6,4.2-1.8
	c0,0,0,0,0,0c1.1-1.1,1.8-2.6,1.8-4.2s-0.6-3.1-1.8-4.2C28,74.7,26.5,74,24.9,74z M26.3,81.5c-0.8,0.8-2,0.8-2.8,0
	c-0.4-0.4-0.6-0.9-0.6-1.4s0.2-1,0.6-1.4c0.4-0.4,0.9-0.6,1.4-0.6c0.5,0,1,0.2,1.4,0.6c0.4,0.4,0.6,0.9,0.6,1.4S26.7,81.1,26.3,81.5
	z M90,15l-9.9-9.9c-0.8-0.8-2-0.8-2.8,0c-0.8,0.8-0.8,2,0,2.8l8.5,8.5l-7.8,7.8l-8.5-8.5c-0.8-0.8-2-0.8-2.8,0c-0.8,0.8-0.8,2,0,2.8
	l8.5,8.5L40.4,61.7c-3.4-2.7-7.5-4.2-11.9-4.2c-5.1,0-9.8,2-13.4,5.6c-3.6,3.6-5.6,8.4-5.6,13.4s2,9.8,5.6,13.4
	c3.7,3.7,8.6,5.6,13.4,5.6c4.9,0,9.7-1.9,13.4-5.6c3.6-3.6,5.6-8.4,5.6-13.4c0-4.4-1.5-8.6-4.2-11.9L90,17.8
	C90.7,17,90.7,15.8,90,15z M39.1,87.1c-2.8,2.8-6.6,4.4-10.6,4.4c-4,0-7.8-1.6-10.6-4.4s-4.4-6.6-4.4-10.6s1.6-7.8,4.4-10.6
	c2.8-2.8,6.6-4.4,10.6-4.4c4,0,7.8,1.6,10.6,4.4c2.8,2.8,4.4,6.6,4.4,10.6S41.9,84.3,39.1,87.1z"/>
</svg>
