<svg width="848" height="533" fill="none" xmlns="http://www.w3.org/2000/svg"><mask id="a" maskUnits="userSpaceOnUse" x="0" y="0" width="848" height="533"><path fill="#C4C4C4" d="M0 0h848v533H0z"/></mask><g mask="url(#a)" fill="#170F0C" fill-opacity=".72"><path d="M153.005-130l24.521 20.56-248.005 295.786L-95 165.786zm559.158 786.02l-24.521-20.56L935.65 339.676l24.52 20.56zM191.005-86l24.521 20.56-248.005 295.786L-57 209.786zm483.158 698.02l-24.521-20.56L897.65 295.676l24.52 20.56zM285.728-107l24.521 20.56-380.727 454.08L-95 347.08zM579.44 633.02l-24.521-20.56 380.732-454.076 24.52 20.56zM323.728-61l24.521 20.56-380.727 454.08L-57 393.08zM541.44 587.02l-24.521-20.56 380.732-454.076 24.52 20.56zM376.647-29l24.521 20.56-424.647 506.46L-48 477.46zm111.874 584.02L464 534.46 888.651 28.003l24.521 20.56zm-93 10.738L371 545.198 888.501-71.996l24.521 20.56zm-83 0L288 545.198 805.501-71.996l24.521 20.56zm-81 0L207 545.198 724.501-71.996l24.521 20.56zm-80 0L127 545.198 644.501-71.996l24.521 20.56zm-81 0l-24.52-20.56L563.5-71.995l24.521 20.56zm-69 0l-24.52-20.56L494.5-71.995l24.521 20.56z"/></g></svg>